<?xml version="1.0" encoding="utf-8"?>
<!-- Generator: Adobe Illustrator 25.2.3, SVG Export Plug-In . SVG Version: 6.00 Build 0)  -->
<svg version="1.1" id="Capa_1" xmlns="http://www.w3.org/2000/svg" xmlns:xlink="http://www.w3.org/1999/xlink" x="0px" y="0px"
	 viewBox="0 0 261.9 30.7" style="enable-background:new 0 0 261.9 30.7;" xml:space="preserve">
<style type="text/css">
	.st0{fill:#222221;}
</style>
<g>
	<polygon class="st0" points="5.3,2.9 0.8,2.9 0.8,27.8 5.3,27.8 	"/>
	<polygon class="st0" points="29.5,2.9 24.9,2.9 24.9,20.2 12.2,2.9 7.6,2.9 7.6,27.8 12.2,27.8 12.2,10.5 24.9,27.8 29.5,27.8 	"/>
	<g>
		<path class="st0" d="M41.4,2.9h-9.7v24.9h9.7c3.3,0,6.5-1.3,8.8-3.6s3.6-5.5,3.6-8.8s-1.3-6.5-3.6-8.8C47.9,4.2,44.7,2.9,41.4,2.9
			L41.4,2.9z M48.7,18.4c-0.4,1-1,1.8-1.7,2.6c-0.7,0.7-1.6,1.3-2.6,1.7s-2,0.6-3,0.6h-5.1V7.5h5.1c1,0,2.1,0.2,3,0.6
			c1,0.4,1.8,1,2.6,1.7s1.3,1.6,1.7,2.6s0.6,2,0.6,3S49.1,17.4,48.7,18.4L48.7,18.4z"/>
		<path class="st0" d="M53.8,15.3L53.8,15.3z"/>
	</g>
	<polygon class="st0" points="60.1,2.9 55.5,2.9 55.5,27.8 60.1,27.8 	"/>
	<polygon class="st0" points="82.2,2.9 62.3,2.9 62.3,7.5 70,7.5 70,27.8 74.6,27.8 74.6,7.5 82.2,7.5 	"/>
	<polygon class="st0" points="101.7,23.2 89,23.2 89,17.6 101.7,17.6 101.7,13.1 89,13.1 89,7.5 101.7,7.5 101.7,2.9 84.5,2.9 
		84.5,27.8 101.7,27.8 	"/>
	<path class="st0" d="M117.1,15.1l8.1-12.2h-5.6l-5.2,8.1l-5.2-8.1h-5.6l8.1,12.2l-8.3,12.7h5.7l5.4-8.5l5.4,8.5h5.7L117.1,15.1z"/>
	<path class="st0" d="M125.1,15.3c0-7.5,4.1-12.9,11.1-12.9c5.1,0,8.8,2.7,10.3,7.9l-1.4,0.3c-0.9-4.2-4-7-8.8-7
		c-2.7,0-4.9,0.9-6.6,2.5c-2.1,2.1-3.1,5.4-3.1,9.2c0,3.1,0.6,5.8,2,7.9c1.6,2.4,4.3,3.8,7.9,3.8c4.5,0,7.4-2.6,8.8-6.5l1.4,0.5
		c-1.7,4.3-5.2,7.2-10.2,7.2C129.3,28.2,125.1,23.6,125.1,15.3L125.1,15.3z"/>
	<path class="st0" d="M166.7,27.8l-3.3-8.4h-11.8l-3.3,8.4h-1.4l10-24.9h1.2l10,24.9H166.7L166.7,27.8z M152,18.3h10.9l-3.3-8.2
		c-0.5-1.3-1.2-3.1-2.2-5.6l0,0c-0.7,1.8-1.4,3.7-2.2,5.6L152,18.3L152,18.3z"/>
	<path class="st0" d="M187.2,27.7v0.1h-1.5c-1-1.3-1.3-2.8-1.2-6c0.1-3.8-1.2-5.2-6.9-5.2h-6.8v11.2h-1.3V2.9h8.4c5,0,8.5,1.2,8.5,7
		c0,3.1-1.6,5.4-4.9,6.1c3.3,0.5,4.5,2.1,4.4,5.5C185.8,24.3,186,26.1,187.2,27.7L187.2,27.7z M170.8,15.4h7.2c3.8,0,7-1.2,7-5.5
		c0-4.8-2.6-5.8-7.2-5.8h-7V15.4L170.8,15.4z"/>
	<path class="st0" d="M188.7,27.8V2.9h15v1.2H190v10.4h12.3v1.2H190v10.9h13.6v1.2H188.7L188.7,27.8z"/>
	<path class="st0" d="M205.9,27.8V2.9h15v1.2h-13.6v10.4h12.3v1.2h-12.3v10.9h13.6v1.2H205.9L205.9,27.8z"/>
	<path class="st0" d="M241,27.7v0.1h-1.5c-1-1.3-1.3-2.8-1.2-6c0.1-3.8-1.2-5.2-6.9-5.2h-6.8v11.2h-1.3V2.9h8.4c5,0,8.5,1.2,8.5,7
		c0,3.1-1.6,5.4-4.9,6.1c3.3,0.5,4.5,2.1,4.4,5.5C239.6,24.3,239.8,26.1,241,27.7L241,27.7z M224.6,15.4h7.2c3.8,0,7-1.2,7-5.5
		c0-4.8-2.6-5.8-7.2-5.8h-7V15.4L224.6,15.4z"/>
	<path class="st0" d="M241.8,19.7l1.4-0.2c0,5.3,4.1,7.6,8.8,7.6c4.7,0,7.8-2.4,7.8-5.9c0-4.3-3.7-4.8-8.8-5.6
		c-5.2-0.9-8.5-2.4-8.5-6.5s3.7-6.6,8.3-6.6c5,0,8.9,2,9.4,7.9l-1.3,0.2c-0.1-4.9-3.6-7-8.1-7c-3.7,0-7,1.8-7,5.4
		c0,3.8,3.7,4.7,8.7,5.5c5.2,0.9,8.5,2,8.5,6.6c0,4.1-3.1,7.1-9.2,7.1C246.5,28.2,241.8,25.5,241.8,19.7L241.8,19.7z"/>
</g>
</svg>
