<?xml version="1.0" encoding="utf-8"?>
<!-- Generator: Adobe Illustrator 23.0.1, SVG Export Plug-In . SVG Version: 6.00 Build 0)  -->
<svg version="1.1" xmlns="http://www.w3.org/2000/svg" xmlns:xlink="http://www.w3.org/1999/xlink" x="0px" y="0px"
	 viewBox="0 0 77.1 32.5" style="enable-background:new 0 0 77.1 32.5;" xml:space="preserve">
<style type="text/css">
	.st0{display:none;}
	.st1{display:inline;}
	.st2{fill:#191C17;}
	.st3{fill-rule:evenodd;clip-rule:evenodd;}
	.st4{fill:#080A00;}
	.st5{fill-rule:evenodd;clip-rule:evenodd;fill:#070308;}
	.st6{fill:none;stroke:#070308;stroke-width:0.13;}
</style>
<g id="Inditex" class="st0">
	<g class="st1">
		<path d="M24.4,10.8c-1.1-0.6-2.5-1-5.1-1h-4.6v12.8h4.4c2.9,0,4.5-0.4,5.7-1.1c1.6-1,2.6-3,2.6-5.3C27.3,13.9,26.2,11.8,24.4,10.8
			L24.4,10.8z M21.3,18.8c-0.4,0.2-0.8,0.3-1.8,0.3h-0.4v-5.8h0.3c1,0,1.5,0.1,2,0.4c0.7,0.5,1.1,1.5,1.1,2.5
			C22.5,17.4,22.1,18.3,21.3,18.8L21.3,18.8z"/>
		<polygon points="66.5,14.9 66.5,12.9 72.7,12.9 72.7,9.8 61.9,9.8 61.9,22.6 72.9,22.6 72.9,19.6 66.5,19.6 66.5,17.6 71.4,17.6 
			71.4,14.9 66.5,14.9 		"/>
		<polygon points="-15.1,9.8 -15.1,22.6 -10.4,22.6 -10.4,9.8 -15.1,9.8 		"/>
		<polygon points="33,9.8 33,22.6 37.6,22.6 37.6,9.8 33,9.8 		"/>
		<polygon points="0.5,17.7 8.3,23.1 8.3,9.8 3.8,9.8 3.8,14.6 -4.1,9.4 -4.1,22.6 0.5,22.6 0.5,17.7 		"/>
		<polygon points="43.6,9.8 43.6,13.4 47.5,13.4 47.5,22.6 52,22.6 52,13.4 56,13.4 56,9.8 43.6,9.8 		"/>
		<polygon points="84.7,19.4 86.7,22.6 92.2,22.6 87.5,16.2 92.2,9.8 86.7,9.8 84.7,12.9 82.7,9.8 77.2,9.8 81.9,16.2 77.2,22.6 
			82.6,22.6 84.7,19.4 		"/>
	</g>
</g>
<g id="Massimo" class="st0">
	<g class="st1">
		<path d="M117.1,23.8C117.1,23.8,117.1,23.7,117.1,23.8c-0.3-0.2-1.1,0.1-1.5,0.2c-1.4,0.2-2.4-0.8-2.7-1.6
			c-0.3-0.6-0.3-1.4-0.5-2.3c-0.1-0.4-0.1-0.9-0.1-1.4c0-0.6,0-1.7-0.7-1.8c-1.1-0.2-0.9,1.6-1,2.8c-0.2,1.6-0.7,3-2.1,3.6
			c-0.7,0.3-1.5,0.3-2.1-0.1c-1-0.8-1-2.3-1-4.1c0-0.8,0-1.6,0-2.4c0-0.7-0.2-2.1,0.1-2.5c0.4-0.6,1.6-0.2,2.2-0.5
			c0.2-0.1,0.4-0.3,0.4-0.6c-0.2-0.9-1.9-0.3-2.5-0.7c-0.8-0.6,0.2-3-0.8-3.4c-0.3-0.1-0.7,0.1-0.8,0.3c-0.3,0.4-0.2,1.4-0.2,2.1
			c0,0.3,0,0.6-0.1,0.8c-0.1,0.2-0.2,0.3-0.4,0.4c-0.3,0.1-0.6,0.1-1,0.1c-0.5,0-1.1,0-1.6,0c-0.3,0-0.8,0.1-1.1,0
			c-1.4-0.4,0.2-3.7-1.5-3.7c-0.4,0-0.5,0.2-0.6,0.5c-0.3,0.8,0.1,2.1-0.2,2.8c-0.3,0.8-1.7,0.2-2.2,1c-0.1,0.1-0.2,0.3-0.1,0.5
			c0.2,1.1,1.8,0.4,2.2,1.1c0.3,0.4,0.2,1.7,0.2,2.4c-0.1,2.2-0.1,3.7-0.9,5c-0.2,0.3-0.4,0.6-0.6,0.8c-0.2,0.2-0.4,0.3-0.7,0.5
			c-0.3,0.1-0.8,0.2-1.2,0c-1.3-0.5-1.3-2.8-1.4-4.5c0-0.9,0.1-1.9-0.7-2c-0.9-0.2-1,1.4-1.2,2.1c-0.4,1.7-1.3,4.1-3,4.4
			c-1,0.2-1.6-0.5-1.8-1.2c-0.1-0.4-0.1-0.7-0.1-1.3c0-0.8,0.2-1.7,0.2-2.3c0.1-1.3-0.2-1.9-0.9-1.8c-0.7,0.1-0.7,0.8-0.9,1.6
			c-0.4,2.1-0.3,5.3,1,6.3c0.2,0.2,0.5,0.4,0.9,0.5c1.4,0.5,2.9-0.3,3.7-0.9c0.4-0.3,0.9-0.8,1.7-0.6c1.1,0.3,1.4,1.3,2.6,1.5
			c0.6,0.1,1.1-0.1,1.4-0.4c0.6-0.4,1.1-0.9,2-1c0.5-0.1,0.9,0.1,1.2,0.3c0.7,0.4,1.2,0.9,2.1,1c0.5,0.1,0.9-0.1,1.2-0.3
			c0.6-0.4,1.1-0.9,2-1.1c0.4-0.1,0.8,0.1,1.1,0.3c0.6,0.4,1,0.9,1.8,1.1c1.4,0.3,2.8-0.9,3.7-1.3c0.4-0.2,0.9-0.2,1.3,0
			c0.4,0.2,0.6,0.5,1,0.8c0.6,0.4,1.7,0.7,2.8,0.5c0.3-0.1,0.6-0.2,0.9-0.3C116.5,24.6,117.2,24.1,117.1,23.8L117.1,23.8z
			 M103.7,15.6c0,0.4,0,0.9,0,1.3c0,0.3,0,0.6,0,1c0,0.8,0,1.9-0.2,2.7c-0.2,0.8-0.5,1.3-1,1.9c-0.3,0.4-0.9,1-1.7,0.8
			c-2.2-0.5-1.9-3.4-1.9-6c0-0.7,0-2.4,0.3-2.8c0.4-0.5,2.2-0.5,2.9-0.5c0.2,0,0.4,0,0.6,0C103.8,13.8,103.7,14.6,103.7,15.6
			L103.7,15.6z M111.3,11.8c-0.5,0.1-0.7,0.3-0.9,0.8c-0.2,0.7,0.4,1.4,1.1,1.3C112.9,13.7,112.8,11.8,111.3,11.8L111.3,11.8z
			 M81.9,18.3c0.2-0.7,0.3-1.9,0.3-2.8c-0.1-0.9-0.2-1.7-0.3-2.2c-0.3-1-0.6-1.9-1-2.7c-2-3.3-5.4-5.3-10.9-5.2c-0.3,0-0.5,0-0.8,0
			c-0.6,0.1-1,0.1-1.5,0.2c-1.7,0.3-3.5,0.6-5,1.2c-0.5,0.2-1,0.4-1.5,0.6c-0.1,0.1-0.4,0.2-0.4,0.5C60.9,8.2,61.6,8,61.9,8
			c0.9-0.2,2.2-0.7,2.3,0.5c0.1,2.2,0.2,4.3,0.2,6.5c0,0.6,0,1.3,0,1.9c0,0.8,0,1.7,0,2.6c0,0.3,0,0.5,0,0.8c0,1-0.1,2.4,0.7,2.7
			c0.4,0.2,0.7-0.2,0.8-0.5c0.3-0.6,0.3-1.1,0.4-2.1c0-0.2,0-0.5,0-0.7c0-0.7,0-1.5,0-2.2c0-1.5,0-3,0.1-4.6c0-0.8,0-1.5,0-2.3
			c0-0.2,0-0.4,0-0.6c0-0.5,0-0.9,0-1.4c0-0.3,0-0.6,0-0.9c0.1-0.3,0.2-0.5,0.4-0.6c0.5-0.3,2.4-0.4,3.4-0.3C71,6.9,71.5,7,72.1,7.2
			c2.1,0.5,3.9,1.5,5,3c0.6,0.8,1.2,1.7,1.5,2.8c0.2,0.6,0.3,1.1,0.4,1.8c0.2,1.7-0.1,3.7-0.5,4.8c-1.3,3.4-3.9,5-7.8,5.9
			c-0.7,0.2-1.4,0.2-1.9,0.2c-0.3,0-0.6,0-0.8,0c-0.3,0-0.6,0-0.9,0c-0.4,0-0.7,0-1.1,0c-0.9-0.1-2.3-0.2-3.1-0.4
			c-0.3,0-0.9-0.2-1.1-0.1c0,0,0,0,0,0.1c0,0.2,0.6,0.4,0.9,0.5c0.8,0.3,1.7,0.5,2.7,0.7c4.9,1,9.8-0.4,12.6-2.3
			C79.8,22.7,81.3,21,81.9,18.3L81.9,18.3z M53.5,21.2c0.6-2-0.8-3.6-2.1-4.2c-1-0.4-2.7-0.4-3.8,0c-0.2,0.1-0.9,0.4-0.7,0.7
			c0.1,0.2,0.4,0.1,0.6,0.1c0.5-0.1,1.2-0.3,1.8-0.2c1.5,0.3,2.8,1.3,2.2,3.2c-0.1,0.3-0.2,0.6-0.4,0.8c-0.6,0.9-2.5,2-4.2,1.5
			c-1-0.3-1.8-1-2.1-2c-0.2-0.7-0.2-2-0.1-2.8c0.1-0.5-0.1-0.9-0.5-0.8c-0.5,0.1-0.8,1.6-1,2.1c-0.5,1.4-1.3,2.8-2.9,3.1
			c-0.7,0.1-1.1-0.6-1.3-1.1c-0.4-1-0.6-2.4-0.8-3.6c-0.1-0.6-0.2-1.3-0.8-1.4c-0.5-0.1-0.9,0.2-1.1,0.5c-0.6,0.7-0.9,1.7-1.4,2.4
			c-0.2,0.3-0.6,0.7-1.1,0.6c-1-0.2-1.2-1.6-1.5-2.4c-0.1-0.4-0.4-1.1-0.9-1c-1,0.2-1.3,2.2-1.7,3c-0.2,0.4-0.6,1-1.2,0.7
			c-1.1-0.5-0.5-3.3-1.8-3.6c-0.8-0.2-1.2,0.8-1.5,1.3c-0.5,1-1,2.2-1.6,3.2c-0.3,0.4-0.6,0.9-1.2,1c-0.7,0.1-1-0.5-1.1-1
			c-0.4-0.9-0.5-1.9-0.7-3c-0.1-0.6-0.1-1.3-0.5-1.6c-0.7-0.4-1.2,0.4-1.5,0.6c-0.8,0.6-1.6,1.1-2.5,1.6c-0.3,0.2-0.8,0.5-1.2,0.4
			c-0.5-0.1-0.8-0.5-1.1-0.7c-0.6-0.5-1.2-1.1-1.8-1.6c-0.3-0.3-0.7-0.9-1.3-0.9c-0.2,0-0.2,0.1-0.3,0.1c-0.4,0.2-0.6,0.8-0.8,1.2
			c-0.4,0.6-1.6,2-2.5,2.1c-0.5,0.1-0.9-0.5-1.2-0.7c-0.8-0.8-1.5-1.5-2.5-2.1c-0.4-0.2-1.2-0.5-1.7-0.2c-0.4,0.3-0.4,1.4-0.6,2
			c-0.5,1.4-1.3,3-2.4,3.9c-0.4,0.3-1,0.8-1.8,0.6c-1.4-0.3-1.7-2-2-3.5c-0.2-0.7-0.2-2-0.8-2.1c-0.5-0.1-0.6,0.4-0.6,0.7
			c-0.1,0.4,0,0.7,0,1.3c0,0.2,0,0.5,0,0.7c0,0.6-0.1,0.9-0.3,1.3c-0.5,1.1-2.2,2.3-4,2c-0.4-0.1-0.7-0.1-1.1-0.2
			c-1-0.4-1.6-1.2-1.8-2.4c-0.1-0.4,0-0.8,0.1-1c0.4-1.3,1.7-1.8,3.1-1.8c0.5-0.1,2.1,0.2,2.2-0.2c0.1-0.3-0.5-0.6-0.7-0.7
			c-0.8-0.4-2.2-0.7-3.3-0.4c-1.5,0.4-2.8,1.3-3.4,2.6c-0.7,1.7,0.3,3.7,1.3,4.5c1.2,1,3.2,1.5,5.3,0.9c1-0.3,1.8-0.9,2.9-1.1
			c0.3,0,0.6,0,0.8,0.1c1,0.3,1.9,1.5,3.3,1.1c0.4-0.1,0.8-0.4,1.2-0.6c0.9-0.6,1.7-1.6,2.1-2.6c0.3-0.7,0.5-1.5,0.9-2.1
			C2.5,19.2,3,19,3.4,19.3c0.2,0.1,0.4,0.3,0.6,0.4c0.2,0.1,0.3,0.3,0.4,0.5c0.1,0.3,0.1,0.6-0.1,0.8c-0.2,0.2-0.4,0.3-0.6,0.5
			c-0.4,0.3-0.8,0.6-1.1,1c-0.7,0.9-0.6,1.8,0.4,2.3c1.4,0.8,4.9,1,5.3-0.8c0.2-0.7-0.2-1.3-0.4-1.8c-0.1-0.2-0.3-0.5-0.2-0.9
			c0.1-0.4,0.5-0.6,0.7-0.8c0.6-0.5,1.2-1,1.8-1.5c0.3-0.2,0.6-0.2,0.9-0.1c0.3,0.1,0.5,0.3,0.7,0.5c0.2,0.2,0.8,0.6,0.7,1.1
			c-0.1,0.3-0.4,0.5-0.6,0.7c-0.6,0.4-2.3,1.8-1.4,2.9c0.2,0.2,0.4,0.4,0.6,0.5c0.4,0.3,1,0.4,1.5,0.5c1.7,0.4,3.5-0.1,3.9-1.4
			c0.3-1.3-1.3-2.2-0.1-3.1c0.2-0.1,0.4-0.2,0.6-0.3c0.3-0.1,0.6-0.4,1.1-0.3c0.8,0.2,0.9,1,1.1,1.7c0.4,1.1,1.1,2.9,2.2,3.2
			c0.6,0.2,1-0.2,1.3-0.4c0.9-0.7,1.4-1.7,2.1-2.5c0.2-0.3,0.7-1,1.2-0.9c0.9,0.2,1,2.1,1.3,3c0.1,0.4,0.3,0.8,0.6,0.9
			c0.5,0.1,0.9-0.6,1-1c0.4-1,1-3.1,1.9-3.3c0.4-0.1,0.8,0.2,0.9,0.4c0.5,0.8,0.4,2.3,0.7,3.2c0.1,0.3,0.4,0.9,0.9,0.8
			c0.6-0.1,0.8-1,1-1.6c0.3-1,0.7-2.2,1.7-2.5c0.7-0.2,1,0.5,1.2,0.9c0.4,1.1,0.6,2.7,1.7,3.1c0.5,0.2,1.2,0,1.6-0.2
			c1-0.5,1.5-1.4,2.7-1.6c0.3-0.1,0.7,0.1,0.9,0.2c0.6,0.3,1.1,0.7,1.6,1.1c1.6,0.9,3.8,0.5,5.2-0.4C52.3,23.5,53.1,22.5,53.5,21.2
			L53.5,21.2z M5.7,24.2c-0.8,0.2-2-0.2-1.8-1.1c0.2-0.6,1-1,1.3-1C6.3,22.2,6.9,23.9,5.7,24.2L5.7,24.2z M14.6,23.5
			c-0.1,0.3-0.5,0.5-0.9,0.5c-0.8,0.1-1.9-0.4-1.6-1.2c0.2-0.5,1-0.8,1.3-0.9c0.2,0,0.3,0,0.5,0C14.3,22.2,14.9,22.9,14.6,23.5
			L14.6,23.5z M20.1,11.8c-0.5,0.1-0.7,0.3-0.9,0.8c-0.2,0.7,0.4,1.4,1.1,1.3C21.6,13.7,21.6,11.8,20.1,11.8L20.1,11.8z M-18.1,24.4
			c0-0.5-0.1-1.1-0.1-1.6c0-0.4,0-0.8-0.1-1.2c-0.3-4.2-0.5-7.5-0.8-11.7c-0.2-2.5-0.5-3.5-0.8-4c-0.4-0.5-0.9-0.5-2.1-0.4
			c-0.4,0-0.7,0-1,0.3c-0.5,0.4-1.1,2.3-1.4,3.1c-1,2.7-1.9,5.5-2.9,8.2c-0.4,1.1-0.7,2.1-1.2,3.2c-0.2,0.5-0.4,1-0.9,1.1
			c-0.5,0.1-0.7-0.3-0.8-0.6c-0.2-1-0.4-2-0.6-3.1c-0.4-2.7-0.9-5.3-1.3-8c-0.2-0.9-0.4-2.7-0.8-3.1c-0.3-0.4-1.7-0.5-2.5-0.3
			c-1.1,0.3-1.1,2.2-1.5,3.6c-0.7,3.5-2.9,14.3-3.1,15.3c-0.1,0.5,0,1,0.3,1.2c0.3,0.3,1,0.2,1.3,0c0.4-0.3,0.6-1.5,0.8-2.4
			c0.6-2.9,1.2-6.8,1.7-9.6c0.2-1,0.3-2.4,1.1-2.4c0.8,0,0.9,1.5,1.2,3.2c0.1,0.4,0.8,4,1.2,6.1c0.2,1.2,0.4,2.2,0.8,3
			c0.4,0.8,1.4,1.3,2.4,0.9c1.1-0.5,1.5-2,1.9-3.1c1.1-2.8,2.2-5.6,3.2-8.4c0.4-1,0.7-1.9,1.1-2.9c0.1-0.3,0.3-0.8,0.8-0.8
			c0.9-0.1,1,1.8,1.2,4.2c0.1,3.6,0.3,6.3,0.4,9.9c0.1,1.6-0.1,3.1,1.3,3.1c0.2,0,0.3,0,0.4,0C-17.9,26.9-18,25.7-18.1,24.4
			L-18.1,24.4z"/>
	</g>
</g>
<g id="Uterque" class="st0">
	<g class="st1">
		<path class="st2" d="M-12.8,19.6c0,0.5-0.1,1-0.2,1.4c-0.1,0.4-0.4,0.8-0.6,1.1c-0.3,0.3-0.6,0.5-1,0.7c-0.4,0.2-0.9,0.3-1.4,0.3
			c-0.5,0-1-0.1-1.4-0.3c-0.4-0.2-0.7-0.4-1-0.7c-0.3-0.3-0.5-0.7-0.6-1.1c-0.1-0.4-0.2-0.9-0.2-1.4v-8.6h-2.6v8.6
			c0,0.8,0.1,1.6,0.4,2.3c0.3,0.7,0.7,1.3,1.2,1.9c0.5,0.5,1.1,0.9,1.8,1.2c0.7,0.3,1.5,0.4,2.4,0.4c0.9,0,1.7-0.1,2.4-0.4
			c0.7-0.3,1.3-0.7,1.8-1.2c0.5-0.5,0.9-1.1,1.1-1.9c0.3-0.7,0.4-1.5,0.4-2.3v-8.6h-2.6V19.6z"/>
		<polygon class="st2" points="-3.3,13.3 1,13.3 1,25.3 3.6,25.3 3.6,13.3 8,13.3 8,11.1 -3.3,11.1 		"/>
		<polygon class="st2" points="17.6,19.2 22.8,19.2 22.8,17.1 17.6,17.1 17.6,13.3 24.1,13.3 24.1,11.1 15,11.1 15,25.3 24.1,25.3 
			24.1,23.1 17.6,23.1 		"/>
		<path class="st2" d="M38.3,19.2c0.3-0.1,0.6-0.3,0.9-0.4c0.4-0.3,0.8-0.6,1.1-0.9c0.3-0.4,0.5-0.8,0.7-1.2
			c0.2-0.4,0.2-0.9,0.2-1.5c0-0.6-0.1-1.2-0.3-1.7c-0.2-0.5-0.6-1-1-1.3c-0.4-0.4-1-0.6-1.7-0.8c-0.7-0.2-1.4-0.3-2.3-0.3h-4.2v14.2
			h2.6v-5.6h1.1c0.3,0,0.4,0,0.4,0.1c0.1,0,0.2,0.1,0.2,0.2l3.4,4.8c0.2,0.4,0.6,0.6,1,0.6h2.3l-4.2-5.8
			C38.5,19.4,38.4,19.3,38.3,19.2z M38.1,17c-0.2,0.2-0.5,0.4-0.9,0.5c-0.4,0.1-0.8,0.2-1.3,0.2h-1.6v-4.4h1.7c1,0,1.7,0.2,2.2,0.5
			c0.4,0.3,0.7,0.9,0.7,1.6c0,0.4-0.1,0.7-0.2,1C38.5,16.5,38.3,16.8,38.1,17z"/>
		<path class="st2" d="M79,19.6c0,0.5-0.1,1-0.2,1.4c-0.1,0.4-0.4,0.8-0.6,1.1c-0.3,0.3-0.6,0.5-1,0.7c-0.4,0.2-0.9,0.3-1.4,0.3
			c-0.5,0-1-0.1-1.4-0.3c-0.4-0.2-0.7-0.4-1-0.7c-0.3-0.3-0.5-0.7-0.6-1.1c-0.1-0.4-0.2-0.9-0.2-1.4v-8.6H70v8.6
			c0,0.8,0.1,1.6,0.4,2.3c0.3,0.7,0.7,1.3,1.2,1.9c0.5,0.5,1.1,0.9,1.8,1.2c0.7,0.3,1.5,0.4,2.4,0.4c0.9,0,1.7-0.1,2.4-0.4
			c0.7-0.3,1.3-0.7,1.8-1.2c0.5-0.5,0.9-1.1,1.1-1.9c0.3-0.7,0.4-1.5,0.4-2.3v-8.6H79V19.6z"/>
		<polygon class="st2" points="92.5,23.1 92.5,19.2 97.7,19.2 97.7,17.1 92.5,17.1 92.5,13.3 99,13.3 99,11.1 89.9,11.1 89.9,25.3 
			98.9,25.3 99,23.1 		"/>
		<path class="st2" d="M62,21.1c0.3-0.9,0.5-1.9,0.5-2.9c0-1-0.2-2-0.5-2.9c-0.3-0.9-0.8-1.7-1.4-2.3c-0.6-0.6-1.4-1.1-2.2-1.5
			c-0.9-0.4-1.8-0.5-2.9-0.5c-1,0-2,0.2-2.9,0.5c-0.9,0.4-1.6,0.9-2.2,1.5c-0.6,0.6-1.1,1.4-1.4,2.3c-0.3,0.9-0.5,1.9-0.5,2.9
			c0,1.1,0.2,2,0.5,2.9c0.3,0.9,0.8,1.7,1.4,2.3c0.6,0.6,1.4,1.1,2.2,1.5c0.9,0.4,1.8,0.5,2.9,0.5c0.1,0,0.1,0,0.2,0l8.1,0v-2.2
			h-3.1C61.2,22.7,61.7,21.9,62,21.1z M59.6,20.3c-0.2,0.6-0.5,1.1-0.9,1.5c-0.4,0.4-0.9,0.7-1.4,1c-0.5,0.2-1.2,0.3-1.8,0.3
			c-0.7,0-1.3-0.1-1.9-0.3c-0.5-0.2-1-0.5-1.4-1c-0.4-0.4-0.7-0.9-0.9-1.5C51.1,19.7,51,19,51,18.2c0-0.8,0.1-1.5,0.3-2.1
			c0.2-0.6,0.5-1.1,0.9-1.6c0.4-0.4,0.9-0.7,1.4-1c0.5-0.2,1.2-0.3,1.9-0.3c0.7,0,1.3,0.1,1.8,0.3c0.5,0.2,1,0.5,1.4,1
			c0.4,0.4,0.7,0.9,0.9,1.6c0.2,0.6,0.3,1.3,0.3,2.1C59.9,19,59.8,19.7,59.6,20.3z"/>
		<path class="st2" d="M73.7,9.4c0.7,0,1.2-0.5,1.2-1.2S74.3,7,73.7,7c-0.7,0-1.2,0.5-1.2,1.2S73,9.4,73.7,9.4z"/>
		<path class="st2" d="M77.6,9.4c0.7,0,1.2-0.5,1.2-1.2c0-0.7-0.5-1.2-1.2-1.2c-0.7,0-1.2,0.5-1.2,1.2C76.5,8.8,77,9.4,77.6,9.4z"/>
	</g>
</g>
<g id="Bershka" class="st0">
	<g class="st1">
		<path class="st3" d="M-20,28.7V3.4h9.3c2.2,0,3.9,0.6,5.2,1.8c1.3,1.2,1.9,2.7,1.9,4.5c0,2.9-1.4,4.8-4.3,5.8l0,0.1
			c1.4,0.4,2.6,1.1,3.5,2.3c0.9,1.2,1.4,2.5,1.4,4.1c0,4.5-3.1,6.8-9.2,6.8H-20z M-17.1,16.6v9.7h5.3c4.1,0,6.2-1.5,6.2-4.6
			c0-1.6-0.6-2.8-1.8-3.8c-1.2-0.9-2.8-1.4-4.8-1.4H-17.1z M-17.1,5.8v8.5h4.9c2,0,3.5-0.5,4.5-1.4c0.9-0.8,1.4-1.8,1.4-2.9
			c0-2.8-1.6-4.2-4.8-4.2H-17.1z"/>
		<path class="st3" d="M14,23.8l2,1c-0.7,1.3-1.5,2.3-2.4,2.9c-1.2,0.9-2.8,1.3-4.6,1.3c-2.2,0-4-0.7-5.5-2.2
			c-1.6-1.7-2.5-4.1-2.5-7.2c0-2.9,0.7-5.2,2-6.9c1.3-1.7,3.2-2.5,5.4-2.5c2,0,3.7,0.7,4.9,2c1.4,1.5,2,3.6,2,6.3v1.7H3.6
			c0,2,0.5,3.6,1.6,4.9c1,1.3,2.3,1.9,3.8,1.9C11.2,26.9,12.9,25.9,14,23.8z M3.6,17.9h9.3c0-1.7-0.4-3.1-1.2-4.1
			c-0.8-1-1.8-1.5-3.2-1.5c-1.5,0-2.7,0.5-3.5,1.5C4.2,14.8,3.8,16.2,3.6,17.9z"/>
		<path class="st3" d="M19.6,28.7V10.5h2.5v3.6h0.1c0.7-1.3,1.5-2.3,2.4-2.9c1-0.7,2.2-1,3.6-1v2.5c-1.5,0-2.8,0.5-3.7,1.6
			c-0.9,0.9-1.6,2.4-2.3,4.3v10.1H19.6z"/>
		<path class="st3" d="M29.7,25.6l2-1.5c1.3,1.9,3.1,2.8,5.2,2.8c1.3,0,2.3-0.3,3-0.9c0.6-0.5,0.9-1.2,0.9-2.1
			c0-1.2-0.9-2.2-2.8-2.9c-1.7-0.6-3.4-1.2-5.1-1.8c-1.8-0.9-2.7-2.3-2.7-4.2c0-1.6,0.6-2.8,1.7-3.6c1.1-0.9,2.5-1.3,4.3-1.3
			c1.2,0,2.4,0.3,3.6,0.9c1.2,0.6,2.1,1.4,2.7,2.3l-1.8,1.5c-1.4-1.7-3-2.6-4.7-2.6c-2.2,0-3.3,0.9-3.3,2.7c0,1.1,0.9,1.9,2.7,2.5
			c3.2,1.1,4.9,1.7,5.1,1.8c1.8,1,2.7,2.5,2.7,4.4c0,1.7-0.7,3-2,4c-1.2,0.9-2.6,1.3-4.4,1.3C33.9,29.1,31.5,27.9,29.7,25.6z"/>
		<path class="st3" d="M47.6,3.4h2.5v9.5h0.1c1.7-1.9,3.5-2.8,5.4-2.8c1.5,0,2.7,0.4,3.6,1.2c1.1,0.9,1.6,2.3,1.6,4.1v13.3h-2.5
			V15.5c0-2.2-1-3.2-3-3.2c-1.8,0-3.5,0.9-5.2,2.8v13.6h-2.5V3.4z"/>
		<polygon class="st3" points="66.9,28.7 66.9,3.4 69.5,3.4 69.5,19.7 76.9,10.5 79.9,10.5 74.6,17.2 80.6,28.7 77.7,28.7 
			72.8,19.4 69.5,23.2 69.5,28.7 		"/>
		<path class="st3" d="M85.7,15.1L83.5,14c1.4-2.6,3.7-3.9,6.8-3.9c1.8,0,3.2,0.4,4.3,1.2c1.3,1,2,2.4,2,4.2v9.2
			c0,1.5,0.1,2.9,0.4,3.9h-2.6l-0.3-2.5c-1.7,1.9-3.7,2.9-6,2.9c-1.5,0-2.7-0.4-3.6-1.3c-1-0.9-1.5-2.2-1.5-3.8c0-2,0.8-3.5,2.5-4.7
			c1.7-1.1,4.6-2,8.6-2.8v-1c0-2.2-1.3-3.3-3.8-3.3C88,12.3,86.5,13.2,85.7,15.1z M94.2,23.9v-5c-5.8,1-8.6,2.7-8.6,5.2
			c0,0.8,0.3,1.5,0.9,2c0.6,0.5,1.3,0.8,2.1,0.8c0.9,0,1.9-0.3,2.9-0.9C92.5,25.5,93.4,24.7,94.2,23.9z"/>
	</g>
</g>
<g id="Oysho" class="st0">
	<g class="st1">
		<path d="M-11.5,4c-7.6,0-12.8,5.4-12.8,12.2c0,6.9,5.2,12.2,12.8,12.2c7.6,0,12.8-5.4,12.8-12.2C1.3,9.4-3.9,4-11.5,4z
			 M-11.5,27.6c-5.3,0-8.9-3.7-8.9-11.4c0-7.7,3.6-11.4,8.9-11.4c5.3,0,8.9,3.7,8.9,11.4C-2.7,23.9-6.2,27.6-11.5,27.6z"/>
		<path d="M19.5,5v0.5c1.5,0,2.1,0.3,2.1,1.3c0,0.8-0.6,1.8-3.2,6c-1.4,2.3-2.3,4-2.5,4.6c-0.3-1-1.1-2.9-3-6.1
			c-0.6-1-1.1-1.8-1.6-2.5C10.4,7.6,10,6.8,10,6.4c0-0.7,0.4-0.8,1.5-0.9V5c0,0-2,0-3.3,0C4.9,5,2.7,4.9,2.7,4.9v0.5
			c2.3,0.3,3.6,1.3,7.4,7.3c2.5,4.1,2.9,5.5,2.9,7.3v0.8c0,2.4,0,4-0.2,4.9c-0.2,1.1-0.9,1.2-2.4,1.3v0.5c0.6,0,2.4-0.2,4.1-0.2
			c1.8,0,4.1,0.2,4.1,0.2V27c-1.4-0.1-2.1-0.2-2.4-1.3c-0.2-0.9-0.2-2.5-0.2-4.9v-0.9c0.1-1.6,0.7-3.1,2.8-6.5
			c3.3-5.4,4.8-7.4,7.5-7.9V4.9C26,4.9,24,5,21.9,5C20.4,5,19.5,5,19.5,5z"/>
		<path d="M63.1,4.9v0.5c1.5,0.1,2.1,0.2,2.4,1.3c0.2,0.9,0.2,2.5,0.2,4.9v3.7H53.1v-3.7c0-2.4,0-4,0.2-4.9c0.2-1.1,0.9-1.2,2.4-1.3
			V4.9c0,0-2.3,0.1-4.1,0.1c-1.8,0-3.6-0.1-4.1-0.1v0.5c1.5,0.1,2.1,0.2,2.4,1.3c0.2,0.9,0.2,2.5,0.2,4.9v9.1c0,2.4,0,4-0.2,4.9
			c-0.2,1.1-0.9,1.2-2.4,1.3v0.5c0.6,0,2.4-0.1,4.1-0.1c1.8,0,4.1,0.1,4.1,0.1V27c-1.4-0.1-2.1-0.2-2.4-1.3
			c-0.2-0.9-0.2-2.5-0.2-4.9v-4.4h12.6v4.4c0,2.4,0,4-0.2,4.9c-0.2,1.1-0.9,1.2-2.4,1.3v0.5c0.6,0,2.4-0.1,4.1-0.1
			c1.8,0,4.1,0.1,4.1,0.1V27c-1.4-0.1-2.1-0.2-2.4-1.3c-0.2-0.9-0.2-2.5-0.2-4.9v-9.1c0-2.4,0-4,0.2-4.9c0.2-1.1,0.9-1.2,2.4-1.3
			V4.9c0,0-2.3,0.1-4.1,0.1C65.4,5,63.6,4.9,63.1,4.9z"/>
		<path d="M37.6,15l-2.5-1.6c-2-1.3-3.5-2.4-3.5-4.7c0-2.4,1.8-3.8,4.4-3.8c3.7,0,4.6,3,4.9,5.2h0.4c0-0.3,0.1-1.1,0.1-2.3
			c0-1.5-0.1-2.3-0.1-2.3c-0.3-0.2-2.1-1.3-5.2-1.3c-4.4,0-6.8,2.7-6.8,6c0,2.4,1,4.7,4.4,6.8l2.5,1.6c2,1.2,3.7,2.5,3.7,4.9
			c0,2.9-2,4.3-4.7,4.3c-3.6,0-5.1-2.2-6-6.2h-0.4c0,0.7-0.1,1.4-0.1,2.5c0,1.4,0.1,2.6,0.1,2.6c0.1,0.1,2.3,1.8,6,1.8
			c4.7,0,7.5-2.6,7.5-6.5C42.2,19,40.8,17,37.6,15z"/>
		<path d="M88.7,4C81,4,75.9,9.4,75.9,16.2c0,6.9,5.2,12.2,12.8,12.2c7.6,0,12.8-5.4,12.8-12.2C101.5,9.4,96.3,4,88.7,4z M88.7,27.6
			c-5.3,0-8.9-3.7-8.9-11.4c0-7.7,3.6-11.4,8.9-11.4c5.3,0,8.9,3.7,8.9,11.4C97.5,23.9,94,27.6,88.7,27.6z"/>
	</g>
</g>
<g id="PullBear" class="st0">
	<g class="st1">
		<path d="M-22.2,25.5h-3.4V6.6h4.3c4.7,0,7.2,3.6,7.2,7.1c0,3.5-2.5,7.1-6.8,7.1h-1.4V25.5L-22.2,25.5z M-22.2,17.6h1.3
			c2.3,0,3.6-2,3.6-3.9c0-1.9-1.2-3.9-3.9-3.9h-0.9V17.6L-22.2,17.6z"/>
		<path d="M-4.7,25.9c-4.4,0-7.4-3-7.4-7.6V6.6h3.4v11.5c0,2.9,1.4,4.5,4,4.5c3.3,0,3.9-2.5,3.9-4.5V6.6h3.4v11.6
			C2.6,22.8-0.3,25.9-4.7,25.9L-4.7,25.9z"/>
		<polygon points="14.1,25.5 4.9,25.5 4.9,6.6 8.3,6.6 8.3,22.3 14.1,22.3 14.1,25.5 		"/>
		<polygon points="24.7,25.5 15.5,25.5 15.5,6.6 18.9,6.6 18.9,22.3 24.7,22.3 24.7,25.5 		"/>
		<path d="M50.1,25.5h-5.8V6.6h3.6c2,0,3.6,0.1,4.7,0.8c1.7,1,2.6,2.6,2.6,4.5c0,1.3-0.6,2.5-1.5,3.3c1.8,0.9,2.8,2.5,2.8,4.7
			C56.4,23.1,53.7,25.5,50.1,25.5L50.1,25.5z M47.7,22.3h1.8c3.5,0,3.5-1.9,3.5-2.5c0-0.6,0-2.4-3.4-2.4h-1.9V22.3L47.7,22.3z
			 M47.7,14.3H49c1.3,0,2.8-0.4,2.8-2.3c0-1-0.3-2.3-3-2.3h-1.2V14.3L47.7,14.3z"/>
		<polygon points="69.8,25.5 58.2,25.5 58.2,6.6 69.8,6.6 69.8,9.8 61.6,9.8 61.6,14.3 69.4,14.3 69.4,17.4 61.6,17.4 61.6,22.3 
			69.8,22.3 69.8,25.5 		"/>
		<path d="M89,25.5h-3.9l-1.9-4.9h-7l-1.9,4.9h-3.6l7.7-18.9h2.7L89,25.5L89,25.5z M77.5,17.4H82c0,0-2.2-5.7-2.3-5.7
			C79.7,11.7,77.5,17.4,77.5,17.4L77.5,17.4z"/>
		<path d="M96.8,22.3c0.5,1,1.1,2.1,1.7,3.2h4.2c-0.9-1.4-1.9-3.2-2.7-4.8c-0.6-1.1-1-2.1-1.4-2.9c0.8-0.5,1.6-1.1,2.2-2
			c0.5-0.9,0.9-2,0.9-3.3c0-3.7-2.7-5.9-7.3-5.9h-4.6v18.9h3.4v-6.4c0,0,0.9,0,2-0.2C95.6,19.8,96.1,21,96.8,22.3z M93.2,15.8v-6h1
			c2.7,0,4,1,4,2.8c0,2.6-2.1,3.1-3.9,3.1H93.2z"/>
		<path d="M41,17.5c0,0-0.1,0-0.1,0C40.9,17.5,41,17.5,41,17.5z"/>
		<path d="M39,21.2c0-0.7,0.1-1.3,0.3-1.8c0.3-1.1,1-1.8,1.7-1.9c0,0,0.1,0,0.1,0v-3.2c-2.4,0-4.3,1.6-4.8,3.8l-5-5.5l0,0
			c-0.4-0.4-0.5-0.8-0.6-1.3c0-0.5,0.2-1,0.6-1.3h0c0.4-0.4,0.8-0.5,1.3-0.6c0.5,0,1,0.2,1.3,0.6c0.2,0.2,0.3,0.4,0.4,0.6l2.8-1.4
			c-0.2-0.5-0.6-1-1-1.4l0,0l0,0c-1-1-2.3-1.5-3.6-1.5c-1.3,0-2.6,0.5-3.6,1.5h0c-1,1-1.5,2.3-1.5,3.6c0,1.3,0.5,2.6,1.5,3.5l0,0
			c-1.8,1-2.9,2.9-2.9,5.1l0,0c0,3.5,2.8,6.3,6.3,6.3v0c2,0,3.8-0.8,5.1-2.2l1.3,1.5h4.3L39,21.2z M32.2,23L32.2,23
			c-1.7,0-3.1-1.4-3.1-3.1h0c0-1.3,0.9-2.3,2-2.6l4,4.4C34.5,22.5,33.4,23,32.2,23z"/>
	</g>
</g>
<g id="zara">
	<path class="st4" d="M56.8,20.9L56.8,20.9c-0.4-0.9-0.9-1.6-1.5-2.3l-0.2-0.2l0,0l4.2-11.6l5.1,14.1H56.8z M41.2,15.7V1.3h3.3
		c4.4,0,6.7,2.6,6.7,7.5c0,5.2-1.3,6.8-5.7,6.8H41.2z M19.9,20.9l5.1-14.1l5.1,14.1H19.9z M73.2,31.5L61.8,0l0,0h-0.2l-2.4,6.5
		l-4.3,11.8l0,0c-1.5-1.3-3.6-2.1-6.2-2.4l-0.8-0.1l0.8-0.1c4.4-0.8,7.3-3.5,7.3-6.8c0-4.5-4.3-7.7-10.4-7.7H32.8v0.2h3.7v23.5
		L27.5,0l0,0h-0.2l-2.4,6.5l-9.1,24.9l-0.1,0c-0.2,0-0.3,0-0.5,0c-0.2,0-0.5,0-0.7,0H5.5L22.9,1.3l0.1-0.2H1.7v9.3H2
		c0-4.6,2.7-9.1,8.5-9.1h7.1L0,31.7h23.7v-9h-0.2c0,4-2.3,7.7-7.2,8.6l-0.2,0h0l3.7-10.2h10.4L34,31.5h-3.7v0.2h14.6v-0.2h-3.7V15.9
		h4.3c4.4,0,6.9,2,6.9,5.4V24c0,0.3,0,0.8,0,1.1v0l0,0l-2.3,6.3h-3v0.2h6.2v-0.2h-3l2.1-5.8v0c0,0.1,0,0.1,0,0.1l0.1,0.5l0.1,0.3
		c0.4,2.1,1.2,3.7,2.4,4.7l0.2,0.1c1,0.7,2.1,1,3.5,1c1.8,0,3.1-0.5,4.1-1.5l-0.1-0.1c-0.9,0.9-1.7,1.2-2.7,1.2c-1.7,0-2.5-2-2.5-4
		v-3.9c0-1-0.1-2-0.4-2.8l0-0.1l0,0h7.6l3.8,10.3h-3.7v0.2h12.6v-0.2H73.2z"/>
</g>
<g id="zara_home" class="st0">
	<g class="st1">
		<polygon points="-1,12.9 8.1,3.2 -0.2,3.2 -0.2,1.9 11.2,1.9 2.3,11.7 11.1,11.7 11.1,12.9 -1,12.9 		"/>
		<path class="st3" d="M23.7,8.7h6l-3-4.9L23.7,8.7L23.7,8.7z M19.4,12.9l6.6-11h1.4l6.7,11h-1.8l-1.8-3h-7.5l-1.8,3H19.4L19.4,12.9
			z"/>
		<path class="st3" d="M45.3,6.8h6c0.8,0,1.5-0.2,1.9-0.5c0.4-0.3,0.7-0.8,0.7-1.3c0-0.6-0.2-1-0.7-1.4c-0.4-0.3-1.1-0.5-1.8-0.5
			h-6.1V6.8L45.3,6.8z M43.6,12.9v-11h7.8c1.3,0,2.4,0.3,3.1,0.8C55.2,3.3,55.6,4,55.6,5c0,0.8-0.3,1.5-0.9,2.1
			c-0.6,0.6-1.4,0.9-2.3,1.1l3.4,4.8h-1.9l-3.4-4.8h-5.2v4.8H43.6L43.6,12.9z"/>
		<path class="st3" d="M67.6,8.7h6l-3-4.9L67.6,8.7L67.6,8.7z M63.3,12.9l6.6-11h1.4l6.7,11h-1.8l-1.8-3h-7.5l-1.8,3H63.3L63.3,12.9
			z"/>
		<polygon points="-0.1,30.3 -0.1,19.2 1.7,19.2 1.7,23.6 9.6,23.6 9.6,19.2 11.3,19.2 11.3,30.3 9.6,30.3 9.6,24.8 1.7,24.8 
			1.7,30.3 -0.1,30.3 		"/>
		<path class="st3" d="M27,29.2c1.5,0,2.8-0.4,3.8-1.3c1-0.8,1.5-1.9,1.5-3.2c0-1.3-0.5-2.4-1.5-3.2c-1-0.8-2.3-1.3-3.8-1.3
			c-1.5,0-2.8,0.4-3.8,1.3c-1,0.8-1.5,1.9-1.5,3.2c0,1.3,0.5,2.4,1.5,3.2C24.2,28.8,25.5,29.2,27,29.2L27,29.2z M27,30.5
			c-2,0-3.7-0.5-5-1.6c-1.3-1.1-2-2.5-2-4.1c0-1.7,0.7-3.1,2-4.2c1.3-1.1,3-1.6,5-1.6c2,0,3.7,0.5,5,1.6c1.3,1.1,2,2.5,2,4.1
			c0,1.7-0.7,3.1-2,4.1C30.7,30,29,30.5,27,30.5L27,30.5z"/>
		<polygon points="43.3,30.3 43.3,19.2 44.9,19.2 50.3,26 55.8,19.2 57.4,19.2 57.4,30.3 55.7,30.3 55.7,21.6 50.3,28.2 45,21.6 
			45,30.3 43.3,30.3 		"/>
		<polygon points="67,30.3 67,19.2 77.6,19.2 77.6,20.5 68.6,20.5 68.6,23.7 74.1,23.7 74.1,25 68.6,25 68.6,29 78.1,29 78.1,30.3 
			67,30.3 		"/>
	</g>
</g>
<g id="stradivarious" class="st0">
	<g class="st1">
		<path class="st5" d="M-20.3,15.6v3.5c0,0,0,0.1-0.1,0.1c-0.1,0-0.1,0-0.1,0c-0.2-0.3-0.3-0.7-0.3-1.1c-0.1-0.9,0-1.8,0.3-2.5
			c0-0.1,0.1-0.1,0.1-0.1C-20.4,15.5-20.3,15.6-20.3,15.6z M-19.2,4.7c0.4,0,0.8,0.1,1.2,0.2c0.3,1.9-0.2,3.3-0.4,4
			c-0.2,0.5-0.3,0.9-0.6,1.4c0,0,0,0,0,0c0,0-0.1,0.1-0.1,0.1c-0.1,0-0.1-0.1-0.1-0.1V4.7z M-20.9,25.5c-0.9-0.2-1.6-0.5-2.4-1
			c-4.3-2.8-5.4-8.8-3.9-13.4c0.8-2.3,2.3-4.5,4.5-5.6c0.8-0.4,1.6-0.7,2.4-0.7l0,7.3c-0.1,0.3-0.2,0.6-0.3,0.9
			c-0.1,0.2-0.3,0.4-0.4,0.6c-0.1,0.1-0.2,0.3-0.3,0.4c-0.4,0.4-0.7,0.9-1,1.4c-0.3,0.5-0.6,1.1-0.7,1.7c-0.1,0.2-0.1,0.4-0.1,0.6
			c-0.3,1.9,0.4,4.2,2.6,4.6c0.1,0,0.1,0,0.2,0c0,0,0.1,0,0.1,0c0,0,0,0.1,0,0.1c0,0,0,0,0,0.1C-20.5,23.5-20.7,24.6-20.9,25.5z
			 M-18.3,3.7c-0.3-0.1-0.6-0.1-0.9-0.1V2.4c0-0.1,0-0.1,0.1-0.1c0.1,0,0.1,0,0.1,0.1c0,0.1,0.1,0.1,0.1,0.2
			c0.1,0.1,0.1,0.3,0.2,0.4C-18.5,3.2-18.4,3.4-18.3,3.7z M-12.5,10.4c-1.1,0.6-1.8,1.8-1.9,3c-0.1,2.2,1.7,3.4,3.3,4.5
			c0.1,0.1,0.2,0.1,0.3,0.2c0.6,0.4,1.4,1,1.6,1.5C-9,19.9-9,20.1-9,20.4c-0.1,0.6-0.7,1-1.3,1c-0.3,0-0.6-0.1-0.9-0.2
			c-0.7-0.4-1.3-0.8-1.8-1.5c-0.3-0.5-0.5-0.9-0.6-1.4h-0.6l0.2,4.4c0,0,0,0,0,0c-1.3,1.7-3.1,2.9-5.3,3c0.1-1.1,0.1-1.9,0.2-2.2
			c0-0.2,0-0.3,0-0.5c0-0.2,0-0.4,0-0.6c0-0.1,0-0.1,0.1-0.1c0.8-0.2,1.5-0.6,2.2-1.1c0.8-0.7,1.4-1.6,1.6-2.6c0.1-0.5,0.1-1,0-1.5
			c-0.1-0.4-0.3-0.7-0.6-0.9c-0.3-0.3-0.8-0.6-1.2-0.7c-0.2,0-0.3-0.1-0.5-0.1c-0.3,0-0.5,0-0.8,0.1c-0.2,0-0.4,0.2-0.4,0.5
			c0,0.2,0.1,0.4,0.2,0.5c0.1,0.1,0.1,0.1,0.2,0.1c0.1,0.1,0.2,0.1,0.4,0.2c0.2,0.1,0.3,0.3,0.3,0.5c0.1,0.3,0.1,0.6,0,0.9
			c-0.1,0.3-0.3,0.6-0.5,0.8c-0.2,0.2-0.7,0.6-0.9,0.5c0,0-0.1-0.1-0.1-0.1v-5.2c0.4-0.6,0.5-1.2,0.9-1.8c0.3-0.5,0.5-0.9,0.8-1.4
			c1-1.8,1.6-3.2,1.7-4.6c0.9,0.6,1.6,1.4,2.3,2.3C-13.1,9-12.8,9.7-12.5,10.4z M-12.2,22.1c1.3,0.4,2.5,0.7,3.7,0.2
			c0.4-0.2,0.8-0.4,1.2-0.8c0.7-0.7,1.2-1.8,1.2-2.9c0-1.6-0.9-2.5-2.1-3.4c-0.9-0.7-2.1-1.4-2.9-2.2c-0.4-0.4-0.8-1.1-0.2-1.5
			c0.3-0.3,0.8-0.3,1.2-0.3c0.4,0.1,0.7,0.2,1,0.4c0.8,0.5,1.4,1.7,1.8,2.6h0.6L-6.9,10h-0.6c0,0-0.3,0.6-0.7,0.6
			c-0.2,0-0.4-0.1-0.7-0.2c-0.1-0.1-0.3-0.1-0.4-0.2c-0.6-0.2-1.4-0.3-2.1-0.2c-1-2.4-2.6-4.4-4.6-5.5C-16,3.6-16.4,2.7-17,1.8
			c-0.1-0.2-0.3-0.5-0.5-0.7c-0.4-0.5-1.5-2-2.3-2c-0.1,0-0.3,0-0.4,0.1c-0.1,0-0.2,0.1-0.2,0.2c0,0.1-0.1,0.2-0.1,0.3
			c0,0.1,0,0.2,0,0.3l0,3.6c-4.9,0.4-8.8,5.4-8.8,11.6c0,5.8,3.4,10.6,7.9,11.5c-0.2,0.6-0.3,1-0.5,1.4l-0.2,0.4
			c-0.3,0.6-0.6,1-0.9,1.3c-0.1,0.1-0.2,0.1-0.3,0.2c-0.1,0.1-0.3,0.2-0.5,0.3c-0.2,0.1-0.3,0.1-0.5,0.2c-0.1,0-0.2,0-0.3,0
			c-0.2,0-0.3-0.1-0.4-0.2c-0.1-0.1-0.1-0.3-0.1-0.4c0.1-0.2,0.1-0.3,0.3-0.4c0.2-0.2,0.4-0.3,0.7-0.3c0.1,0,0.2,0,0.2,0
			c0.1,0,0.2,0,0.3,0c0.1,0,0.1,0,0.2-0.1c0.1-0.1,0.2-0.2,0.2-0.4c0-0.1,0-0.1-0.1-0.2c-0.1-0.1-0.1-0.1-0.2-0.2
			c-0.2-0.1-0.5-0.2-0.8-0.2c-0.3,0-0.6,0-0.9,0.1c-0.3,0.1-0.7,0.2-1,0.4l-0.3,0.2c-0.3,0.2-0.6,0.4-0.8,0.7
			c-0.2,0.3-0.4,0.7-0.4,1.2c-0.1,2.5,3.2,3.1,4.9,2.2c2.1-1,2.5-3.9,2.8-6.2C-16.5,26.7-13.9,24.8-12.2,22.1z"/>
		<path class="st6" d="M-20.3,15.6v3.5c0,0,0,0.1-0.1,0.1c-0.1,0-0.1,0-0.1,0c-0.2-0.3-0.3-0.7-0.3-1.1c-0.1-0.9,0-1.8,0.3-2.5
			c0-0.1,0.1-0.1,0.1-0.1C-20.4,15.5-20.3,15.6-20.3,15.6z M-19.2,4.7c0.4,0,0.8,0.1,1.2,0.2c0.3,1.9-0.2,3.3-0.4,4
			c-0.2,0.5-0.3,0.9-0.6,1.4c0,0,0,0,0,0c0,0-0.1,0.1-0.1,0.1c-0.1,0-0.1-0.1-0.1-0.1V4.7z M-20.9,25.5c-0.9-0.2-1.6-0.5-2.4-1
			c-4.3-2.8-5.4-8.8-3.9-13.4c0.8-2.3,2.3-4.5,4.5-5.6c0.8-0.4,1.6-0.7,2.4-0.7l0,7.3c-0.1,0.3-0.2,0.6-0.3,0.9
			c-0.1,0.2-0.3,0.4-0.4,0.6c-0.1,0.1-0.2,0.3-0.3,0.4c-0.4,0.4-0.7,0.9-1,1.4c-0.3,0.5-0.6,1.1-0.7,1.7c-0.1,0.2-0.1,0.4-0.1,0.6
			c-0.3,1.9,0.4,4.2,2.6,4.6c0.1,0,0.1,0,0.2,0c0,0,0.1,0,0.1,0c0,0,0,0.1,0,0.1c0,0,0,0,0,0.1C-20.5,23.5-20.7,24.6-20.9,25.5z
			 M-18.3,3.7c-0.3-0.1-0.6-0.1-0.9-0.1V2.4c0-0.1,0-0.1,0.1-0.1c0.1,0,0.1,0,0.1,0.1c0,0.1,0.1,0.1,0.1,0.2
			c0.1,0.1,0.1,0.3,0.2,0.4C-18.5,3.2-18.4,3.4-18.3,3.7z M-12.5,10.4c-1.1,0.6-1.8,1.8-1.9,3c-0.1,2.2,1.7,3.4,3.3,4.5
			c0.1,0.1,0.2,0.1,0.3,0.2c0.6,0.4,1.4,1,1.6,1.5C-9,19.9-9,20.1-9,20.4c-0.1,0.6-0.7,1-1.3,1c-0.3,0-0.6-0.1-0.9-0.2
			c-0.7-0.4-1.3-0.8-1.8-1.5c-0.3-0.5-0.5-0.9-0.6-1.4h-0.6l0.2,4.4c0,0,0,0,0,0c-1.3,1.7-3.1,2.9-5.3,3c0.1-1.1,0.1-1.9,0.2-2.2
			c0-0.2,0-0.3,0-0.5c0-0.2,0-0.4,0-0.6c0-0.1,0-0.1,0.1-0.1c0.8-0.2,1.5-0.6,2.2-1.1c0.8-0.7,1.4-1.6,1.6-2.6c0.1-0.5,0.1-1,0-1.5
			c-0.1-0.4-0.3-0.7-0.6-0.9c-0.3-0.3-0.8-0.6-1.2-0.7c-0.2,0-0.3-0.1-0.5-0.1c-0.3,0-0.5,0-0.8,0.1c-0.2,0-0.4,0.2-0.4,0.5
			c0,0.2,0.1,0.4,0.2,0.5c0.1,0.1,0.1,0.1,0.2,0.1c0.1,0.1,0.2,0.1,0.4,0.2c0.2,0.1,0.3,0.3,0.3,0.5c0.1,0.3,0.1,0.6,0,0.9
			c-0.1,0.3-0.3,0.6-0.5,0.8c-0.2,0.2-0.7,0.6-0.9,0.5c0,0-0.1-0.1-0.1-0.1v-5.2c0.4-0.6,0.5-1.2,0.9-1.8c0.3-0.5,0.5-0.9,0.8-1.4
			c1-1.8,1.6-3.2,1.7-4.6c0.9,0.6,1.6,1.4,2.3,2.3C-13.1,9-12.8,9.7-12.5,10.4z M-12.2,22.1c1.3,0.4,2.5,0.7,3.7,0.2
			c0.4-0.2,0.8-0.4,1.2-0.8c0.7-0.7,1.2-1.8,1.2-2.9c0-1.6-0.9-2.5-2.1-3.4c-0.9-0.7-2.1-1.4-2.9-2.2c-0.4-0.4-0.8-1.1-0.2-1.5
			c0.3-0.3,0.8-0.3,1.2-0.3c0.4,0.1,0.7,0.2,1,0.4c0.8,0.5,1.4,1.7,1.8,2.6h0.6L-6.9,10h-0.6c0,0-0.3,0.6-0.7,0.6
			c-0.2,0-0.4-0.1-0.7-0.2c-0.1-0.1-0.3-0.1-0.4-0.2c-0.6-0.2-1.4-0.3-2.1-0.2c-1-2.4-2.6-4.4-4.6-5.5C-16,3.6-16.4,2.7-17,1.8
			c-0.1-0.2-0.3-0.5-0.5-0.7c-0.4-0.5-1.5-2-2.3-2c-0.1,0-0.3,0-0.4,0.1c-0.1,0-0.2,0.1-0.2,0.2c0,0.1-0.1,0.2-0.1,0.3
			c0,0.1,0,0.2,0,0.3l0,3.6c-4.9,0.4-8.8,5.4-8.8,11.6c0,5.8,3.4,10.6,7.9,11.5c-0.2,0.6-0.3,1-0.5,1.4l-0.2,0.4
			c-0.3,0.6-0.6,1-0.9,1.3c-0.1,0.1-0.2,0.1-0.3,0.2c-0.1,0.1-0.3,0.2-0.5,0.3c-0.2,0.1-0.3,0.1-0.5,0.2c-0.1,0-0.2,0-0.3,0
			c-0.2,0-0.3-0.1-0.4-0.2c-0.1-0.1-0.1-0.3-0.1-0.4c0.1-0.2,0.1-0.3,0.3-0.4c0.2-0.2,0.4-0.3,0.7-0.3c0.1,0,0.2,0,0.2,0
			c0.1,0,0.2,0,0.3,0c0.1,0,0.1,0,0.2-0.1c0.1-0.1,0.2-0.2,0.2-0.4c0-0.1,0-0.1-0.1-0.2c-0.1-0.1-0.1-0.1-0.2-0.2
			c-0.2-0.1-0.5-0.2-0.8-0.2c-0.3,0-0.6,0-0.9,0.1c-0.3,0.1-0.7,0.2-1,0.4l-0.3,0.2c-0.3,0.2-0.6,0.4-0.8,0.7
			c-0.2,0.3-0.4,0.7-0.4,1.2c-0.1,2.5,3.2,3.1,4.9,2.2c2.1-1,2.5-3.9,2.8-6.2C-16.5,26.7-13.9,24.8-12.2,22.1z"/>
		<path class="st5" d="M78.6,11.4c0.1,0,0.2,0.1,0.3,0.1c0.1,0,0.2,0.1,0.2,0.2c0.1,0.1,0.1,0.2,0.1,0.3c0,0.1,0.1,0.3,0.1,0.4
			c0,0.3,0,0.5,0,0.8v6.2c0,0.4,0,0.9-0.1,1.2c0,0.1-0.1,0.1-0.1,0.2c-0.1,0.1-0.3,0.2-0.5,0.3c-0.2,0.1-0.4,0.1-0.7,0.1v1h6.4v-1
			c-0.3,0-0.9-0.1-1.1-0.4c-0.1-0.1-0.1-0.1-0.1-0.3c0-0.1-0.1-0.3-0.1-0.4c0-0.3,0-0.5,0-0.8v-9.1h-5v1
			C78.2,11.3,78.4,11.3,78.6,11.4z"/>
		<path class="st6" d="M78.6,11.4c0.1,0,0.2,0.1,0.3,0.1c0.1,0,0.2,0.1,0.2,0.2c0.1,0.1,0.1,0.2,0.1,0.3c0,0.1,0.1,0.3,0.1,0.4
			c0,0.3,0,0.5,0,0.8v6.2c0,0.4,0,0.9-0.1,1.2c0,0.1-0.1,0.1-0.1,0.2c-0.1,0.1-0.3,0.2-0.5,0.3c-0.2,0.1-0.4,0.1-0.7,0.1v1h6.4v-1
			c-0.3,0-0.9-0.1-1.1-0.4c-0.1-0.1-0.1-0.1-0.1-0.3c0-0.1-0.1-0.3-0.1-0.4c0-0.3,0-0.5,0-0.8v-9.1h-5v1
			C78.2,11.3,78.4,11.3,78.6,11.4z"/>
		<path class="st5" d="M91.5,11.4c0.3,0.1,0.5,0.3,0.5,0.3c0.2,0.3,0.2,1.1,0.2,1.6V19c-0.2,0.2-0.3,0.4-0.5,0.6
			c-0.2,0.2-0.4,0.5-0.7,0.7c-0.2,0.2-0.5,0.2-0.7,0.2c-0.2,0-0.4-0.1-0.5-0.2c-0.3-0.2-0.4-0.6-0.4-0.9c0-0.1,0-0.3,0-0.4
			c0-0.3,0-0.5,0-0.8v-7.9h-4.9v1c0.2,0,0.4,0.1,0.6,0.1c0.2,0,0.3,0.1,0.5,0.3c0.2,0.3,0.2,1.1,0.2,1.6v4.3c0,0.7,0,1.3,0.1,2
			c0,0.3,0.1,0.6,0.2,0.9l0,0c0.2,0.6,0.6,1.1,1.1,1.5c0.5,0.4,1.1,0.6,1.8,0.6c1.1,0,2-0.4,2.8-1.1c0.2-0.2,0.4-0.4,0.6-0.6v1.4
			h4.9v-0.9c-0.2,0-0.4-0.1-0.6-0.1c-0.2,0-0.3-0.1-0.4-0.3c-0.2-0.3-0.2-1.1-0.2-1.6v-9h-4.9v1C91.2,11.3,91.3,11.4,91.5,11.4z"/>
		<path class="st6" d="M91.5,11.4c0.3,0.1,0.5,0.3,0.5,0.3c0.2,0.3,0.2,1.1,0.2,1.6V19c-0.2,0.2-0.3,0.4-0.5,0.6
			c-0.2,0.2-0.4,0.5-0.7,0.7c-0.2,0.2-0.5,0.2-0.7,0.2c-0.2,0-0.4-0.1-0.5-0.2c-0.3-0.2-0.4-0.6-0.4-0.9c0-0.1,0-0.3,0-0.4
			c0-0.3,0-0.5,0-0.8v-7.9h-4.9v1c0.2,0,0.4,0.1,0.6,0.1c0.2,0,0.3,0.1,0.5,0.3c0.2,0.3,0.2,1.1,0.2,1.6v4.3c0,0.7,0,1.3,0.1,2
			c0,0.3,0.1,0.6,0.2,0.9l0,0c0.2,0.6,0.6,1.1,1.1,1.5c0.5,0.4,1.1,0.6,1.8,0.6c1.1,0,2-0.4,2.8-1.1c0.2-0.2,0.4-0.4,0.6-0.6v1.4
			h4.9v-0.9c-0.2,0-0.4-0.1-0.6-0.1c-0.2,0-0.3-0.1-0.4-0.3c-0.2-0.3-0.2-1.1-0.2-1.6v-9h-4.9v1C91.2,11.3,91.3,11.4,91.5,11.4z"/>
		<path class="st5" d="M61.5,15.9v0.6c0,0.9,0,2.7,0,2.7c-0.1,0.1-0.2,0.2-0.3,0.2c-0.3,0.2-0.7,0.4-1.1,0.4c-0.6,0-1.1-0.4-1.1-1.1
			c0-0.4,0.2-0.8,0.5-1.2c0.5-0.6,1.1-1,1.7-1.4L61.5,15.9z M61.5,20.6c0,0.2,0.1,0.4,0.2,0.6c0.1,0.3,0.3,0.5,0.5,0.7
			c0.2,0.2,0.5,0.3,0.7,0.4c0.3,0.1,0.6,0.1,0.9,0.1c1.4,0,2.3-0.7,3-1.8l-0.6-0.5c-0.1,0.2-0.5,0.5-0.8,0.4
			c-0.2-0.1-0.3-0.3-0.3-0.6c0-0.2,0-0.4,0-0.6l0-4.5c0-0.4,0-0.7,0-1c0-0.3,0-0.6-0.1-1c0-0.1,0-0.3-0.1-0.4
			c-0.1-0.3-0.3-0.6-0.5-0.9c-0.5-0.6-1.2-1.1-2-1.3C62,10,61.6,10,61,10c-1,0-1.8,0.1-2.7,0.4c-0.4,0.1-0.7,0.3-1,0.5
			c-0.4,0.2-0.7,0.5-1,0.8c-0.2,0.2-0.4,0.5-0.5,0.8c0,0,0,0.1,0,0.1c-0.4,0.9-0.1,1.8,0.6,2.3c0.7,0.5,1.8,0.5,2.5-0.2
			c0.6-0.6,0.6-1.5,0-2.1c-0.3-0.4-0.5-0.6-0.2-0.8c0.1-0.1,0.3-0.2,0.4-0.3c0.7-0.3,2.1-0.4,2.3,0.7c0,0.1,0,0.2,0,0.2
			c0,0.1,0,0.3,0,0.4c0,0.3,0,0.5,0,0.8v1.1c-0.8,0.4-1.5,0.7-2.2,1.1c-0.7,0.4-1.3,0.7-2,1.1c-1.1,0.7-1.9,1.7-1.9,3.1
			c0,0.7,0.2,1.3,0.7,1.7c0.5,0.5,1.1,0.7,1.7,0.7c0.4,0,0.7-0.1,1-0.2c0.4-0.1,0.7-0.2,1-0.4C60.5,21.5,61,21,61.5,20.6z"/>
		<path class="st6" d="M61.5,15.9v0.6c0,0.9,0,2.7,0,2.7c-0.1,0.1-0.2,0.2-0.3,0.2c-0.3,0.2-0.7,0.4-1.1,0.4c-0.6,0-1.1-0.4-1.1-1.1
			c0-0.4,0.2-0.8,0.5-1.2c0.5-0.6,1.1-1,1.7-1.4L61.5,15.9z M61.5,20.6c0,0.2,0.1,0.4,0.2,0.6c0.1,0.3,0.3,0.5,0.5,0.7
			c0.2,0.2,0.5,0.3,0.7,0.4c0.3,0.1,0.6,0.1,0.9,0.1c1.4,0,2.3-0.7,3-1.8l-0.6-0.5c-0.1,0.2-0.5,0.5-0.8,0.4
			c-0.2-0.1-0.3-0.3-0.3-0.6c0-0.2,0-0.4,0-0.6l0-4.5c0-0.4,0-0.7,0-1c0-0.3,0-0.6-0.1-1c0-0.1,0-0.3-0.1-0.4
			c-0.1-0.3-0.3-0.6-0.5-0.9c-0.5-0.6-1.2-1.1-2-1.3C62,10,61.6,10,61,10c-1,0-1.8,0.1-2.7,0.4c-0.4,0.1-0.7,0.3-1,0.5
			c-0.4,0.2-0.7,0.5-1,0.8c-0.2,0.2-0.4,0.5-0.5,0.8c0,0,0,0.1,0,0.1c-0.4,0.9-0.1,1.8,0.6,2.3c0.7,0.5,1.8,0.5,2.5-0.2
			c0.6-0.6,0.6-1.5,0-2.1c-0.3-0.4-0.5-0.6-0.2-0.8c0.1-0.1,0.3-0.2,0.4-0.3c0.7-0.3,2.1-0.4,2.3,0.7c0,0.1,0,0.2,0,0.2
			c0,0.1,0,0.3,0,0.4c0,0.3,0,0.5,0,0.8v1.1c-0.8,0.4-1.5,0.7-2.2,1.1c-0.7,0.4-1.3,0.7-2,1.1c-1.1,0.7-1.9,1.7-1.9,3.1
			c0,0.7,0.2,1.3,0.7,1.7c0.5,0.5,1.1,0.7,1.7,0.7c0.4,0,0.7-0.1,1-0.2c0.4-0.1,0.7-0.2,1-0.4C60.5,21.5,61,21,61.5,20.6z"/>
		<path class="st5" d="M51.4,10.3v1c0.1,0,0.2,0,0.3,0c0.7,0.1,1,0.3,0.9,1c-0.1,0.7-0.6,1.7-0.7,2.1l-1.2,3l-1.8-4.1
			c-0.3-0.8-0.9-1.8,0.1-2c0.2,0,0.4,0,0.5,0v-1h-6.3v0.9c0.3,0.1,0.7,0.2,0.9,0.4c0.1,0.2,0.2,0.3,0.3,0.5c0.1,0.2,0.2,0.3,0.3,0.5
			c0.2,0.4,0.3,0.7,0.5,1.1l3.9,8.8h0.7l3.9-9.1c0.2-0.4,0.4-0.8,0.6-1.2c0.1-0.1,0.1-0.2,0.2-0.3c0.1-0.1,0.1-0.2,0.2-0.3
			c0.1-0.1,0.2-0.2,0.4-0.2c0.2-0.1,0.3-0.1,0.6-0.1v-0.9H51.4z"/>
		<path class="st6" d="M51.4,10.3v1c0.1,0,0.2,0,0.3,0c0.7,0.1,1,0.3,0.9,1c-0.1,0.7-0.6,1.7-0.7,2.1l-1.2,3l-1.8-4.1
			c-0.3-0.8-0.9-1.8,0.1-2c0.2,0,0.4,0,0.5,0v-1h-6.3v0.9c0.3,0.1,0.7,0.2,0.9,0.4c0.1,0.2,0.2,0.3,0.3,0.5c0.1,0.2,0.2,0.3,0.3,0.5
			c0.2,0.4,0.3,0.7,0.5,1.1l3.9,8.8h0.7l3.9-9.1c0.2-0.4,0.4-0.8,0.6-1.2c0.1-0.1,0.1-0.2,0.2-0.3c0.1-0.1,0.1-0.2,0.2-0.3
			c0.1-0.1,0.2-0.2,0.4-0.2c0.2-0.1,0.3-0.1,0.6-0.1v-0.9H51.4z"/>
		<path class="st5" d="M37.8,11.4c0.1,0,0.2,0.1,0.3,0.1c0.1,0,0.2,0.1,0.2,0.2c0.1,0.1,0.1,0.2,0.1,0.3c0,0.1,0.1,0.3,0.1,0.4
			c0,0.3,0,0.5,0,0.8v6.2c0,0.4,0,0.9-0.1,1.2c0,0.1-0.1,0.1-0.1,0.2c-0.1,0.1-0.3,0.2-0.5,0.3c-0.2,0.1-0.4,0.1-0.7,0.1v1h6.4v-1
			c-0.3,0-0.9-0.1-1.1-0.4c-0.1-0.1-0.1-0.1-0.1-0.3c0-0.1-0.1-0.3-0.1-0.4c0-0.3,0-0.5,0-0.8v-9.1h-5v1
			C37.4,11.3,37.6,11.3,37.8,11.4z"/>
		<path class="st6" d="M37.8,11.4c0.1,0,0.2,0.1,0.3,0.1c0.1,0,0.2,0.1,0.2,0.2c0.1,0.1,0.1,0.2,0.1,0.3c0,0.1,0.1,0.3,0.1,0.4
			c0,0.3,0,0.5,0,0.8v6.2c0,0.4,0,0.9-0.1,1.2c0,0.1-0.1,0.1-0.1,0.2c-0.1,0.1-0.3,0.2-0.5,0.3c-0.2,0.1-0.4,0.1-0.7,0.1v1h6.4v-1
			c-0.3,0-0.9-0.1-1.1-0.4c-0.1-0.1-0.1-0.1-0.1-0.3c0-0.1-0.1-0.3-0.1-0.4c0-0.3,0-0.5,0-0.8v-9.1h-5v1
			C37.4,11.3,37.6,11.3,37.8,11.4z"/>
		<path class="st5" d="M31.6,13.1V19c-0.1,0.2-0.2,0.3-0.3,0.5c-0.1,0.2-0.3,0.4-0.4,0.5c-0.2,0.2-0.3,0.3-0.5,0.4
			c-0.3,0.2-0.7,0.2-1.1,0.1c-0.1,0-0.2-0.1-0.4-0.2c-0.2-0.2-0.4-0.4-0.5-0.6c-0.1-0.3-0.3-0.5-0.3-0.8c-0.1-0.3-0.1-0.5-0.2-0.7
			c0-0.3-0.1-0.5-0.1-0.8c0-0.6-0.1-1-0.1-1.6c0-0.5,0-0.9,0-1.3c0.1-0.8,0.2-1.5,0.5-2.2c0.1-0.2,0.3-0.5,0.5-0.6
			c0.3-0.3,0.9-0.3,1.3-0.1C30.8,11.8,31.3,12.5,31.6,13.1z M30.5,6.1c0.4,0,0.5,0.1,0.6,0.1c0.2,0.1,0.3,0.3,0.4,0.5
			C31.6,7,31.6,8,31.6,8.3v3c-0.1-0.2-0.3-0.3-0.4-0.4c-0.3-0.2-0.5-0.4-0.8-0.6c-0.5-0.2-1-0.3-1.5-0.3c-0.9,0-1.7,0.3-2.5,0.8
			c-0.4,0.3-0.7,0.6-1,1c-0.3,0.4-0.6,0.8-0.8,1.3c-0.5,1.1-0.6,2.2-0.7,3.4c0,1.7,0.4,3.5,1.6,4.8c0.8,0.9,1.8,1.3,3,1.3
			c0.8,0,1.4-0.2,2-0.7c0.3-0.3,0.7-0.6,1-1v1.3h5.1v-1c-1.1-0.1-1.4-0.3-1.4-1.4c0-0.3,0-0.6,0-0.9V5.1h-5.3v1
			C30.1,6,30.3,6,30.5,6.1z"/>
		<path class="st6" d="M31.6,13.1V19c-0.1,0.2-0.2,0.3-0.3,0.5c-0.1,0.2-0.3,0.4-0.4,0.5c-0.2,0.2-0.3,0.3-0.5,0.4
			c-0.3,0.2-0.7,0.2-1.1,0.1c-0.1,0-0.2-0.1-0.4-0.2c-0.2-0.2-0.4-0.4-0.5-0.6c-0.1-0.3-0.3-0.5-0.3-0.8c-0.1-0.3-0.1-0.5-0.2-0.7
			c0-0.3-0.1-0.5-0.1-0.8c0-0.6-0.1-1-0.1-1.6c0-0.5,0-0.9,0-1.3c0.1-0.8,0.2-1.5,0.5-2.2c0.1-0.2,0.3-0.5,0.5-0.6
			c0.3-0.3,0.9-0.3,1.3-0.1C30.8,11.8,31.3,12.5,31.6,13.1z M30.5,6.1c0.4,0,0.5,0.1,0.6,0.1c0.2,0.1,0.3,0.3,0.4,0.5
			C31.6,7,31.6,8,31.6,8.3v3c-0.1-0.2-0.3-0.3-0.4-0.4c-0.3-0.2-0.5-0.4-0.8-0.6c-0.5-0.2-1-0.3-1.5-0.3c-0.9,0-1.7,0.3-2.5,0.8
			c-0.4,0.3-0.7,0.6-1,1c-0.3,0.4-0.6,0.8-0.8,1.3c-0.5,1.1-0.6,2.2-0.7,3.4c0,1.7,0.4,3.5,1.6,4.8c0.8,0.9,1.8,1.3,3,1.3
			c0.8,0,1.4-0.2,2-0.7c0.3-0.3,0.7-0.6,1-1v1.3h5.1v-1c-1.1-0.1-1.4-0.3-1.4-1.4c0-0.3,0-0.6,0-0.9V5.1h-5.3v1
			C30.1,6,30.3,6,30.5,6.1z"/>
		<path class="st5" d="M18.9,15.9v0.6c0,0.9,0,2.7,0,2.7c-0.1,0.1-0.2,0.2-0.3,0.2c-0.3,0.2-0.7,0.4-1.1,0.4c-0.6,0-1.1-0.4-1.1-1.1
			c0-0.4,0.2-0.8,0.5-1.2c0.5-0.6,1.1-1,1.7-1.4L18.9,15.9z M18.9,20.6c0,0.2,0.1,0.4,0.2,0.6c0.1,0.3,0.3,0.5,0.5,0.7
			c0.2,0.2,0.5,0.3,0.7,0.4c0.3,0.1,0.6,0.1,0.9,0.1c1.4,0,2.3-0.7,3-1.8l-0.6-0.5c-0.1,0.2-0.5,0.5-0.8,0.4
			c-0.2-0.1-0.3-0.3-0.3-0.6c0-0.2,0-0.4,0-0.6v-4.5c0-0.4,0-0.7,0-1c0-0.3,0-0.6-0.1-1c0-0.1,0-0.3-0.1-0.4
			c-0.1-0.3-0.3-0.6-0.5-0.9c-0.5-0.6-1.2-1.1-2-1.3C19.3,10,18.9,10,18.4,10c-1,0-1.8,0.1-2.7,0.4c-0.4,0.1-0.7,0.3-1,0.5
			c-0.4,0.2-0.7,0.5-1,0.8c-0.2,0.2-0.4,0.5-0.5,0.8c0,0,0,0.1,0,0.1c-0.4,0.9-0.1,1.8,0.6,2.3c0.7,0.5,1.8,0.5,2.5-0.2
			c0.6-0.6,0.6-1.5,0-2.1c-0.3-0.4-0.5-0.6-0.2-0.8c0.1-0.1,0.3-0.2,0.4-0.3c0.7-0.3,2.1-0.4,2.3,0.7c0,0.1,0,0.2,0,0.2
			c0,0.1,0,0.3,0,0.4c0,0.3,0,0.5,0,0.8v1.1c-0.8,0.4-1.5,0.7-2.2,1.1c-0.7,0.4-1.3,0.7-2,1.1c-1.1,0.7-1.9,1.7-1.9,3.1
			c0,0.7,0.2,1.3,0.7,1.7c0.5,0.5,1.1,0.7,1.7,0.7c0.4,0,0.7-0.1,1-0.2c0.4-0.1,0.7-0.2,1-0.4C17.8,21.5,18.4,21,18.9,20.6z"/>
		<path class="st6" d="M18.9,15.9v0.6c0,0.9,0,2.7,0,2.7c-0.1,0.1-0.2,0.2-0.3,0.2c-0.3,0.2-0.7,0.4-1.1,0.4c-0.6,0-1.1-0.4-1.1-1.1
			c0-0.4,0.2-0.8,0.5-1.2c0.5-0.6,1.1-1,1.7-1.4L18.9,15.9z M18.9,20.6c0,0.2,0.1,0.4,0.2,0.6c0.1,0.3,0.3,0.5,0.5,0.7
			c0.2,0.2,0.5,0.3,0.7,0.4c0.3,0.1,0.6,0.1,0.9,0.1c1.4,0,2.3-0.7,3-1.8l-0.6-0.5c-0.1,0.2-0.5,0.5-0.8,0.4
			c-0.2-0.1-0.3-0.3-0.3-0.6c0-0.2,0-0.4,0-0.6v-4.5c0-0.4,0-0.7,0-1c0-0.3,0-0.6-0.1-1c0-0.1,0-0.3-0.1-0.4
			c-0.1-0.3-0.3-0.6-0.5-0.9c-0.5-0.6-1.2-1.1-2-1.3C19.3,10,18.9,10,18.4,10c-1,0-1.8,0.1-2.7,0.4c-0.4,0.1-0.7,0.3-1,0.5
			c-0.4,0.2-0.7,0.5-1,0.8c-0.2,0.2-0.4,0.5-0.5,0.8c0,0,0,0.1,0,0.1c-0.4,0.9-0.1,1.8,0.6,2.3c0.7,0.5,1.8,0.5,2.5-0.2
			c0.6-0.6,0.6-1.5,0-2.1c-0.3-0.4-0.5-0.6-0.2-0.8c0.1-0.1,0.3-0.2,0.4-0.3c0.7-0.3,2.1-0.4,2.3,0.7c0,0.1,0,0.2,0,0.2
			c0,0.1,0,0.3,0,0.4c0,0.3,0,0.5,0,0.8v1.1c-0.8,0.4-1.5,0.7-2.2,1.1c-0.7,0.4-1.3,0.7-2,1.1c-1.1,0.7-1.9,1.7-1.9,3.1
			c0,0.7,0.2,1.3,0.7,1.7c0.5,0.5,1.1,0.7,1.7,0.7c0.4,0,0.7-0.1,1-0.2c0.4-0.1,0.7-0.2,1-0.4C17.8,21.5,18.4,21,18.9,20.6z"/>
		<path class="st5" d="M103.5,10.4c-0.1-0.1-0.3-0.1-0.4-0.2c-0.7-0.3-1.6-0.3-2.4-0.1c-1.6,0.3-2.7,1.8-2.7,3.4
			c-0.1,2.2,1.7,3.4,3.3,4.5c0.1,0.1,0.2,0.1,0.3,0.2c0.6,0.4,1.4,1,1.6,1.5c0.1,0.2,0.1,0.4,0.1,0.7c-0.1,0.6-0.7,1-1.3,1
			c-0.3,0-0.6-0.1-0.9-0.2c-0.7-0.4-1.3-0.8-1.8-1.5c-0.3-0.5-0.5-0.9-0.6-1.4h-0.6l0.2,4.4H99c0.3-0.7,0.5-0.7,1.1-0.5
			c1.3,0.5,2.5,0.7,3.8,0.2c0.4-0.2,0.8-0.4,1.2-0.8c0.7-0.7,1.2-1.8,1.2-2.9c0-1.6-0.9-2.5-2.1-3.4c-0.9-0.7-2.1-1.4-2.9-2.2
			c-0.4-0.4-0.8-1.1-0.2-1.5c0.3-0.3,0.8-0.3,1.2-0.3c0.4,0.1,0.7,0.2,1,0.4c0.8,0.5,1.4,1.7,1.8,2.6h0.6l-0.2-4.2h-0.6
			c0,0-0.3,0.6-0.7,0.6C104,10.7,103.8,10.5,103.5,10.4z"/>
		<path class="st6" d="M103.5,10.4c-0.1-0.1-0.3-0.1-0.4-0.2c-0.7-0.3-1.6-0.3-2.4-0.1c-1.6,0.3-2.7,1.8-2.7,3.4
			c-0.1,2.2,1.7,3.4,3.3,4.5c0.1,0.1,0.2,0.1,0.3,0.2c0.6,0.4,1.4,1,1.6,1.5c0.1,0.2,0.1,0.4,0.1,0.7c-0.1,0.6-0.7,1-1.3,1
			c-0.3,0-0.6-0.1-0.9-0.2c-0.7-0.4-1.3-0.8-1.8-1.5c-0.3-0.5-0.5-0.9-0.6-1.4h-0.6l0.2,4.4H99c0.3-0.7,0.5-0.7,1.1-0.5
			c1.3,0.5,2.5,0.7,3.8,0.2c0.4-0.2,0.8-0.4,1.2-0.8c0.7-0.7,1.2-1.8,1.2-2.9c0-1.6-0.9-2.5-2.1-3.4c-0.9-0.7-2.1-1.4-2.9-2.2
			c-0.4-0.4-0.8-1.1-0.2-1.5c0.3-0.3,0.8-0.3,1.2-0.3c0.4,0.1,0.7,0.2,1,0.4c0.8,0.5,1.4,1.7,1.8,2.6h0.6l-0.2-4.2h-0.6
			c0,0-0.3,0.6-0.7,0.6C104,10.7,103.8,10.5,103.5,10.4z"/>
		<path class="st5" d="M83.2,6.7c0-0.5-0.2-1-0.5-1.4c-0.7-0.8-2-0.9-2.8-0.1c0,0,0,0,0,0C79,6,79,7.3,79.7,8.1
			c0.8,0.8,2,0.9,2.8,0.1C83,7.8,83.2,7.3,83.2,6.7z"/>
		<path class="st6" d="M83.2,6.7c0-0.5-0.2-1-0.5-1.4c-0.7-0.8-2-0.9-2.8-0.1c0,0,0,0,0,0C79,6,79,7.3,79.7,8.1
			c0.8,0.8,2,0.9,2.8,0.1C83,7.8,83.2,7.3,83.2,6.7z"/>
		<path class="st5" d="M67.5,11.4c0.3,0.1,0.4,0.1,0.4,0.2c0.1,0.1,0.3,0.3,0.3,0.5c0,0.1,0,0.2,0.1,0.3c0,0.1,0,0.2,0,0.3
			c0,0.2,0,0.4,0,0.6c0,0,0,3.7,0,5.4c0,0.5,0,1.7-0.1,2.2c-0.1,0.3-0.3,0.5-0.8,0.6c-0.1,0-0.3,0-0.4,0.1v0.7h6.4v-0.7
			c-0.2,0-0.5,0-0.7-0.1c-0.6-0.1-0.7-0.4-0.8-0.8c0-0.2,0-1.5,0-1.7c0-0.2,0-0.5,0-0.8c0-1.5-0.1-3,0.5-4.4c0.2-0.4,0.5-0.8,0.9-1
			c0.4-0.2,0.6,0,0.9,0.3c0.4,0.4,0.8,0.7,1.4,0.7c1,0,1.4-0.8,1.5-1.6c0.1-1.2-0.5-2.1-1.7-2c-1.6,0.1-2.7,1.2-3.5,2.4v-2h-4.9v1
			C67.2,11.3,67.4,11.3,67.5,11.4z"/>
		<path class="st6" d="M67.5,11.4c0.3,0.1,0.4,0.1,0.4,0.2c0.1,0.1,0.3,0.3,0.3,0.5c0,0.1,0,0.2,0.1,0.3c0,0.1,0,0.2,0,0.3
			c0,0.2,0,0.4,0,0.6c0,0,0,3.7,0,5.4c0,0.5,0,1.7-0.1,2.2c-0.1,0.3-0.3,0.5-0.8,0.6c-0.1,0-0.3,0-0.4,0.1v0.7h6.4v-0.7
			c-0.2,0-0.5,0-0.7-0.1c-0.6-0.1-0.7-0.4-0.8-0.8c0-0.2,0-1.5,0-1.7c0-0.2,0-0.5,0-0.8c0-1.5-0.1-3,0.5-4.4c0.2-0.4,0.5-0.8,0.9-1
			c0.4-0.2,0.6,0,0.9,0.3c0.4,0.4,0.8,0.7,1.4,0.7c1,0,1.4-0.8,1.5-1.6c0.1-1.2-0.5-2.1-1.7-2c-1.6,0.1-2.7,1.2-3.5,2.4v-2h-4.9v1
			C67.2,11.3,67.4,11.3,67.5,11.4z"/>
		<path class="st5" d="M2.9,11.4c0.3,0.1,0.4,0.1,0.4,0.2c0.1,0.1,0.3,0.3,0.3,0.5c0,0.1,0,0.2,0.1,0.3c0,0.1,0,0.2,0,0.3
			c0,0.2,0,0.4,0,0.6c0,0,0,3.6,0,5.2c0,0.5,0,1.7-0.1,2.2c-0.1,0.3-0.3,0.5-0.8,0.6c-0.1,0-0.3,0-0.4,0.1v0.9h6.4v-0.9
			c-0.2,0-0.5,0-0.7-0.1c-0.6-0.1-0.7-0.4-0.8-0.8c0-0.2,0-1.5,0-1.7c0-0.2,0-0.5,0-0.8c0-1.5-0.1-2.9,0.5-4.3
			c0.2-0.4,0.5-0.8,0.9-1c0.4-0.2,0.6,0,0.9,0.3c0.4,0.4,0.8,0.7,1.4,0.7c1,0,1.4-0.8,1.5-1.6c0.1-1.2-0.5-2.1-1.7-2
			c-1.6,0.1-2.7,1.2-3.5,2.4v-2H2.4v1C2.6,11.3,2.7,11.3,2.9,11.4z"/>
		<path class="st6" d="M2.9,11.4c0.3,0.1,0.4,0.1,0.4,0.2c0.1,0.1,0.3,0.3,0.3,0.5c0,0.1,0,0.2,0.1,0.3c0,0.1,0,0.2,0,0.3
			c0,0.2,0,0.4,0,0.6c0,0,0,3.6,0,5.2c0,0.5,0,1.7-0.1,2.2c-0.1,0.3-0.3,0.5-0.8,0.6c-0.1,0-0.3,0-0.4,0.1v0.9h6.4v-0.9
			c-0.2,0-0.5,0-0.7-0.1c-0.6-0.1-0.7-0.4-0.8-0.8c0-0.2,0-1.5,0-1.7c0-0.2,0-0.5,0-0.8c0-1.5-0.1-2.9,0.5-4.3
			c0.2-0.4,0.5-0.8,0.9-1c0.4-0.2,0.6,0,0.9,0.3c0.4,0.4,0.8,0.7,1.4,0.7c1,0,1.4-0.8,1.5-1.6c0.1-1.2-0.5-2.1-1.7-2
			c-1.6,0.1-2.7,1.2-3.5,2.4v-2H2.4v1C2.6,11.3,2.7,11.3,2.9,11.4z"/>
		<path class="st5" d="M-3.4,8.8C-3.8,9.3-4.1,9.6-4.6,10c-0.5,0.4-1,0.8-1.5,1.2v0.6h1.5c0,0,0,5.8,0,6c0,0.8,0,1.5,0.1,2.2
			c0.4,2.8,3.8,3,5.6,1.6c0.5-0.4,0.9-0.9,1.1-1.4l-0.8-0.7c-0.1,0.2-0.3,0.4-0.4,0.6c-0.1,0.2-0.3,0.3-0.4,0.4
			c-0.6,0.4-1.2,0.1-1.4-0.6c-0.1-0.5-0.1-1.2-0.1-1.6c0-0.6,0-6.5,0-6.5h2.7v-1.4h-2.7V6.1h-0.6C-2,7.1-2.6,7.9-3.4,8.8z"/>
		<path class="st6" d="M-3.4,8.8C-3.8,9.3-4.1,9.6-4.6,10c-0.5,0.4-1,0.8-1.5,1.2v0.6h1.5c0,0,0,5.8,0,6c0,0.8,0,1.5,0.1,2.2
			c0.4,2.8,3.8,3,5.6,1.6c0.5-0.4,0.9-0.9,1.1-1.4l-0.8-0.7c-0.1,0.2-0.3,0.4-0.4,0.6c-0.1,0.2-0.3,0.3-0.4,0.4
			c-0.6,0.4-1.2,0.1-1.4-0.6c-0.1-0.5-0.1-1.2-0.1-1.6c0-0.6,0-6.5,0-6.5h2.7v-1.4h-2.7V6.1h-0.6C-2,7.1-2.6,7.9-3.4,8.8z"/>
		<path class="st5" d="M42.5,6.7c0-0.5-0.2-1-0.5-1.4c-0.7-0.8-2-0.9-2.8-0.1c0,0,0,0,0,0c-0.8,0.8-0.9,2-0.1,2.9
			c0.8,0.8,2,0.9,2.8,0.1C42.2,7.8,42.5,7.3,42.5,6.7z"/>
		<path class="st6" d="M42.5,6.7c0-0.5-0.2-1-0.5-1.4c-0.7-0.8-2-0.9-2.8-0.1c0,0,0,0,0,0c-0.8,0.8-0.9,2-0.1,2.9
			c0.8,0.8,2,0.9,2.8,0.1C42.2,7.8,42.5,7.3,42.5,6.7z"/>
	</g>
</g>
</svg>
